<svg t="1620608342846" class="icon" viewBox="0 0 1024 1024" version="1.1" xmlns="http://www.w3.org/2000/svg" p-id="1827" width="144" height="144"><path d="M512 512m-512 0a512 512 0 1 0 1024 0 512 512 0 1 0-1024 0Z" fill="#2F314D" p-id="1828"></path><path d="M360.96 286.208l22.528 22.272a214.993455 214.993455 0 0 1 89.250909-19.269818h101.794909c111.057455 0 202.542545 83.921455 214.458182 191.813818h1.582545a23.970909 23.970909 0 1 1 0 47.941818h-1.582545a215.924364 215.924364 0 0 1-119.877818 170.007273l-0.023273 21.504c0 13.405091-10.845091 24.250182-24.250182 24.250182h-48.477091c-13.312 0-24.110545-10.705455-24.250181-23.970909l-97.000728-0.023273-0.093091 2.397091a24.250182 24.250182 0 0 1-24.110545 21.597091h-48.477091a24.250182 24.250182 0 0 1-24.250182-24.250182v-21.480727a216.669091 216.669091 0 0 1-98.816-98.187637l1.861818 0.069818A48.477091 48.477091 0 0 1 232.727273 552.401455V457.541818c0-26.158545 20.712727-47.476364 46.638545-48.453818a216.832 216.832 0 0 1 61.509818-74.938182l-14.126545-13.963636a23.854545 23.854545 0 0 1-2.141091-31.464727l2.234182-2.56a24.250182 24.250182 0 0 1 34.094545 0z m217.483636 136.936727a16.872727 16.872727 0 0 0-23.063272 0.674909l-1.512728 1.652364-30.231272 37.934545-30.231273-37.934545-1.512727-1.652364a16.872727 16.872727 0 0 0-23.063273-0.698181 18.850909 18.850909 0 0 0-3.444364 24.040727l1.210182 1.698909 19.781818 24.832h-15.104l-2.024727 0.139636a17.989818 17.989818 0 0 0-15.429818 18.152728c0 9.402182 6.818909 17.152 15.546182 18.152727l1.908363 0.093091h34.909091v18.269091h-34.909091l-2.024727 0.116363a17.989818 17.989818 0 0 0-15.429818 18.152728c0 9.402182 6.818909 17.152 15.546182 18.152727l1.908363 0.093091h34.909091v21.806545l0.116364 2.141091c1.000727 9.076364 8.378182 16.128 17.338182 16.128 9.006545 0 16.407273-7.121455 17.361454-16.290909l0.093091-1.978182v-21.806545h34.909091l2.024727-0.116364a17.989818 17.989818 0 0 0 15.429818-18.152727 17.989818 17.989818 0 0 0-15.546181-18.152727l-1.908364-0.093091h-34.909091v-18.292364l34.909091 0.023273 2.024727-0.116364a17.989818 17.989818 0 0 0 15.429818-18.152727 17.989818 17.989818 0 0 0-15.546181-18.152727l-1.908364-0.116364h-15.127273l19.805091-24.832 1.303273-1.861818a18.850909 18.850909 0 0 0-3.537455-23.854546z" fill="#E4C699" p-id="1829"></path></svg>