<svg t="1620709420214" class="icon" viewBox="0 0 1063 1024" version="1.1" xmlns="http://www.w3.org/2000/svg" p-id="2719" width="144" height="144"><path d="M317.860329 632.941507c0 174.035755 141.031596 315.108831 315.108831 315.108831s315.108831-141.031596 315.108831-315.108831-141.031596-315.108831-315.108831-315.108831-315.108831 141.031596-315.108831 315.108831z m0 0" fill="#F4C708" p-id="2720"></path><path d="M512.04148 1024C229.687929 1024 0 794.353551 0 512.013827S229.660275 0 512.013827 0 1024.027653 229.632622 1024.027653 512.013827 794.381204 1024 512.04148 1024z m0-973.311585c-254.409938 0-461.449851 206.984607-461.449852 461.325412s206.984607 461.311585 461.449852 461.311585 461.436025-206.984607 461.436025-461.311585S766.492898 50.688415 512.04148 50.688415z m0 0" fill="#111111" p-id="2721"></path><path d="M512.04148 408.507696a111.207561 111.207561 0 1 1 111.193735-111.207561 111.276695 111.276695 0 0 1-111.193735 111.207561z m0-171.726708a60.532973 60.532973 0 1 0 60.519147 60.519147 60.62976 60.62976 0 0 0-60.519147-60.519147z m0 601.126438a111.207561 111.207561 0 1 1 111.193735-111.207561 111.276695 111.276695 0 0 1-111.193735 111.207561z m0-171.726708a60.532973 60.532973 0 1 0 60.519147 60.519147 60.62976 60.62976 0 0 0-60.519147-60.519147z m-214.768998-42.973157a111.207561 111.207561 0 1 1 111.207561-111.193734 111.276695 111.276695 0 0 1-111.207561 111.193734z m0-171.726708a60.532973 60.532973 0 1 0 60.532973 60.532974 60.62976 60.62976 0 0 0-60.532973-60.532974z m429.413556 171.726708a111.207561 111.207561 0 1 1 111.207562-111.193734 111.290521 111.290521 0 0 1-111.207562 111.193734z m0-171.726708a60.532973 60.532973 0 1 0 60.519147 60.532974 60.62976 60.62976 0 0 0-60.519147-60.532974z m0 0M1038.158466 1024H494.232784a25.275074 25.275074 0 1 1 0-50.550149h543.925682a25.275074 25.275074 0 1 1 0 50.550149z m0 0" fill="#111111" p-id="2722"></path></svg>