<?xml version="1.0" encoding="UTF-8"?>
<svg width="34px" height="35px" viewBox="0 0 34 35" version="1.1" xmlns="http://www.w3.org/2000/svg" xmlns:xlink="http://www.w3.org/1999/xlink">
    <!-- Generator: Sketch 53.2 (72643) - https://sketchapp.com -->
    <title>mt</title>
    <desc>Created with Sketch.</desc>
    <g id="Page-1" stroke="none" stroke-width="1" fill="none" fill-rule="evenodd">
        <g id="mt" fill="#FFC300" fill-rule="nonzero">
            <path d="M16.6849974,0.929662 C8.30175588,0.929662 1.33962374,7.05086245 0,14.9321525 C2.18055543,15.3526183 4.11013512,15.6883391 6.03645539,16.0208005 C10.2280761,17.0279629 12.0729108,16.522752 12.6596073,16.0208005 C12.910583,15.518849 13.4157939,13.6740144 11.3167241,13.9249901 C9.22091377,14.1759658 5.28026876,14.6811767 5.53124449,12.3311312 C6.03319597,9.73010993 10.8147727,9.73010993 14.504442,10.7372723 C14.504442,10.7372723 13.7482553,9.39438913 11.821935,9.1434134 C9.72612467,8.89243766 8.63421724,8.89243766 8.88845241,7.5495545 C8.88845241,6.20667133 10.4823113,5.45374412 13.0800732,7.04760302 C14.9249078,8.39048619 15.4268593,9.39438913 16.7697424,10.988248 C16.7697424,10.988248 23.1419186,12.3311312 26.8315879,14.9288931 C26.8315879,14.9288931 29.7650705,17.0247034 26.3296364,19.1205138 C23.3961538,20.1276762 22.8909429,18.3643272 17.1054632,20.7143727 C11.5709593,22.8167019 5.78547966,26.5063712 4.69357223,27.7612499 C4.35785144,28.0969707 4.19162075,28.4326915 4.02213064,28.6836672 C7.12510339,32.1223608 11.6524449,34.3029162 16.6002523,34.3029162 C25.9091706,34.4691469 33.5394849,26.9235776 33.5394849,17.6994044 C33.5394849,8.47523124 25.9091706,0.929662 16.6849974,0.929662 Z" id="Path"></path>
        </g>
    </g>
</svg>