<?xml version="1.0" encoding="UTF-8"?>
<svg width="34px" height="34px" viewBox="0 0 34 34" version="1.1" xmlns="http://www.w3.org/2000/svg" xmlns:xlink="http://www.w3.org/1999/xlink">
    <!-- Generator: Sketch 53.2 (72643) - https://sketchapp.com -->
    <title>ele</title>
    <desc>Created with Sketch.</desc>
    <g id="Page-1" stroke="none" stroke-width="1" fill="none" fill-rule="evenodd">
        <g id="ele" fill="#02B6FD" fill-rule="nonzero">
            <path d="M17.1281347,28.4922306 C12.4125216,28.7478691 8.26391529,25.9090955 6.45531799,22.038923 C4.4677378,17.7862636 4.84267421,13.5874644 7.68036921,9.8402573 C10.3856068,6.26779041 14.1459015,4.84858336 18.5991166,5.38042648 C20.8096884,5.64447836 22.7585093,6.55204894 24.4575165,7.99405131 C25.3793251,8.77693071 25.3587591,9.12677067 24.3367804,9.71326507 C23.4487693,10.2231039 22.5562997,10.7248888 21.6728908,11.2427814 C19.2304826,12.6736378 16.7729734,14.0796854 14.3590414,15.5576426 C13.0663233,16.3486477 12.8078085,17.6105886 13.5303557,18.9198459 C14.3120125,20.335817 15.8273627,20.6654505 17.4328874,19.7372419 C22.2036552,16.9782879 26.9584591,14.1919363 31.7442559,11.4589416 C32.536124,11.0068462 32.6231345,10.5468407 32.2712811,9.78057245 C31.0332861,7.08482689 29.2100911,4.87051582 26.7669639,3.21407915 C21.3684976,-0.446117371 15.6083981,-1.03253989 9.7096569,1.74791515 C3.82508197,4.52175446 0.628486301,9.39269226 0.0970747166,15.8124182 C-0.343227524,21.1344446 1.68174569,25.6404414 5.52315432,29.3486736 C10.8790502,34.5186832 19.8299925,35.332196 25.982071,31.1758955 C27.5840003,30.0940162 27.5840003,30.0940162 26.5907855,28.4415345 C25.5168881,26.6553011 24.4512604,26.3232946 22.587005,27.2169867 C20.8229918,28.0623552 18.9944035,28.6116724 17.1281347,28.4922306 Z" id="Path"></path>
            <path d="M33.3214483,20.9292866 C33.2327119,19.6508065 32.5394319,18.6122887 31.9411444,17.5415553 C31.745838,17.1918592 31.4324562,17.326402 31.1527999,17.4859692 C30.056251,18.1137397 28.9630819,18.7469033 27.8581915,19.359429 C27.3885502,19.6198135 27.3054947,19.9351369 27.5770252,20.3928412 C28.2063057,21.4535072 28.830984,22.5169777 29.4343052,23.5922413 C29.6964874,24.0593658 30.0109479,24.1662234 30.4634029,23.8801671 C31.1241079,23.4625883 31.8061701,23.0752835 32.4440079,22.6255611 C33.0113743,22.2250249 33.344747,21.6622607 33.3214483,20.9292866 Z" id="Path"></path>
        </g>
    </g>
</svg>