<svg t="1620709454760" class="icon" viewBox="0 0 1024 1024" version="1.1" xmlns="http://www.w3.org/2000/svg" p-id="3736" width="144" height="144"><path d="M68.096 516.096a443.904 443.904 0 1 0 887.808 0 443.904 443.904 0 1 0-887.808 0Z" fill="#FFFFFF" p-id="3737"></path><path d="M595.456 256c-1.536-1.536-3.072-4.608-4.608-8.192 1.536 2.048 3.072 5.12 4.608 8.192zM410.624 197.12c-15.872-3.072-28.672-6.144-44.544-4.608-33.28 3.072-51.2 22.528-60.416 54.272-4.608 15.872-6.144 30.208-8.192 46.08 0 6.144 0 15.872-1.536 20.992-3.072 4.608-8.192 6.144-9.728 14.336-3.072 18.944 8.192 15.872 20.992 14.336 18.944-3.072 36.864-4.608 55.808-4.608 15.872-1.536 30.208 1.536 43.008 9.728 4.608 3.072 11.264 8.192 18.944 4.608 8.192-3.072 15.872-4.608 22.528-3.072 9.728 1.536 22.528-15.872 31.744-18.944 15.872-4.608 30.208-6.144 46.08-8.192 17.408-1.536 33.28-4.608 51.2-3.072 6.144 0 17.408 1.536 24.064 0 3.072-1.536 0-11.264 0-15.872-3.072-14.336-14.336-22.528-20.992-33.28-4.608-11.264-9.728-35.328-8.192-47.616-8.192-28.672-103.936-81.408-145.408-36.864 5.12-5.632-7.68 10.24-15.36 11.776z" fill="#FFF1E4" p-id="3738"></path><path d="M605.184 205.312c-25.6-79.872-101.888-122.88-183.296-124.416-20.992 1.536-39.936 4.608-58.88 9.728-15.872 3.072-46.08 11.264-52.736 27.136 3.072 1.536 18.944-1.536 18.944 3.072 0 6.144-18.944 11.264-24.064 15.872-9.728 6.144-18.944 15.872-27.136 24.064-8.192 8.192-1.536 8.192 6.144 6.144 24.064-8.192 47.616-15.872 71.68-14.336 25.6 1.536 46.08 11.264 68.608 24.064 43.008-44.544 135.68 9.728 145.408 36.864 8.192 4.608 14.336 20.992 18.944 28.672 8.192 11.264 14.336 30.208 24.064 41.472 12.8-16.384-1.536-59.392-7.68-78.336-5.12-12.8 7.68 22.016 0 0zM228.352 301.056c0 6.144 0 14.336 1.536 20.992 0 14.336 3.072 27.136 8.192 41.472 1.536 3.072 3.072 4.608 6.144 3.072 1.536 0 1.536-1.536 3.072-1.536 4.608-1.536 6.144-4.608 4.608-9.728 0-6.144-1.536-14.336-1.536-20.992 0-18.944 1.536-35.328 4.608-54.272 1.536-6.144 3.072-11.264 8.192-17.408 4.608-4.608 9.728-9.728 11.264-17.408 3.072-6.144 6.144-14.336 9.728-20.992 6.144-9.728 14.336-20.992 24.064-27.136 3.072-1.536 6.144-3.072 9.728-6.144 1.536 0 1.536-1.536 1.536-3.072-1.536 0-3.072-1.536-3.072-1.536-4.608 0-9.728 1.536-14.336 3.072-11.264 4.608-22.528 11.264-31.744 18.944-9.728 8.192-20.992 17.408-30.208 24.064-6.144 4.608-15.872 8.192-25.6 8.192-4.608 0-6.144 4.608-3.072 8.192 1.536 3.072 3.072 4.608 4.608 8.192 6.144 8.192 9.728 17.408 9.728 27.136 2.56 4.096 2.56 10.24 2.56 16.896z" fill="#FFFFFF" p-id="3739"></path><path d="M332.288 527.36c0 3.072 0 8.192 1.536 11.264 3.072 6.144 6.144 15.872 9.728 22.528 8.192 15.872 18.944 28.672 33.28 39.936 8.192 4.608 18.944 9.728 30.208 8.192 4.608 0 6.144-3.072 4.608-8.192-1.536-1.536-1.536-3.072-3.072-6.144-3.072-8.192-6.144-17.408-11.264-25.6 0-1.536-1.536-1.536-3.072-3.072-1.536 1.536-3.072 1.536-3.072 3.072-1.536 3.072-1.536 6.144-3.072 8.192-1.536 3.072-3.072 4.608-6.144 1.536-3.072-3.072-4.608-4.608-6.144-8.192-8.192-14.336-14.336-28.672-17.408-44.544-1.536-6.144-3.072-12.8-3.072-17.408 0-3.072-3.072-4.608-6.144-4.608-3.072 1.536-6.144 1.536-8.192 3.072-5.632 4.096-7.168 11.776-8.704 19.968z" fill="#F4D5B9" p-id="3740"></path><path d="M504.32 517.632s0-1.536 0 0c-1.536-1.536-1.536-1.536-3.072-1.536-9.728 0-20.992 1.536-31.744 1.536-9.728 1.536-20.992 3.072-31.744 6.144-1.536 0-1.536 1.536-3.072 1.536 0 1.536 1.536 1.536 1.536 3.072 4.608 3.072 9.728 3.072 15.872 3.072 4.608-1.536 9.728-1.536 15.872-3.072 9.728-1.536 20.992-3.072 28.672-8.192 1.536-1.024 6.144-1.024 7.68-2.56z" fill="" p-id="3741"></path><path d="M364.032 366.08c1.536 0 4.608-1.536 6.144-1.536 0-3.072-1.536-4.608-4.608-6.144-6.144-3.072-14.336-3.072-20.992 1.536-8.192 4.608-17.408 11.264-25.6 18.944l-1.536 1.536c-1.536 1.536-1.536 3.072 1.536 3.072 1.536 0 4.608 0 6.144-1.536 4.608-1.536 8.192-4.608 14.336-6.144 7.168-6.144 16.896-11.264 24.576-9.728z" fill="#F9D2BC" p-id="3742"></path><path d="M550.912 356.864s0-1.536 0 0c-1.536-3.072-4.608-3.072-6.144-4.608-6.144-3.072-11.264-8.192-18.944-11.264-11.264-4.608-20.992 0-27.136 8.192v3.072h3.072c3.072 0 4.608-1.536 8.192-3.072 6.144-1.536 15.872-1.536 22.528 3.072 4.608 3.072 9.728 6.144 17.408 6.144-2.56 0-0.512-1.536 1.024-1.536z" fill="#F3D5BC" p-id="3743"></path><path d="M244.736 385.536c1.536 3.072 3.072 8.192 4.608 11.264 3.072 6.144 6.144 11.264 11.264 18.944 1.536 1.536 3.072 3.072 4.608 1.536 1.536-1.536 1.536-3.072 1.536-4.608-1.536-3.072-1.536-4.608-3.072-8.192-1.536-6.144-3.072-14.336-4.608-22.528 0-3.072-1.536-3.072-4.608-3.072-1.536 0-3.072 1.536-4.608 3.072-2.048 0.512-2.048 2.048-5.12 3.584z" fill="#FFFFFF" p-id="3744"></path><path d="M292.352 375.808c0 3.072 1.536 4.608 4.608 4.608 1.536 0 3.072-1.536 3.072-1.536 6.144-4.608 11.264-9.728 18.944-15.872 1.536-1.536 1.536-3.072 1.536-3.072-1.536 0-3.072-1.536-4.608-1.536-4.608 1.536-9.728 1.536-14.336 3.072-3.072 0-9.216 8.192-9.216 14.336z" fill="#F9D2BC" p-id="3745"></path><path d="M544.256 328.192c-3.072 0-6.144 0-8.192 1.536-1.536 0-1.536 1.536-1.536 1.536l1.536 1.536c3.072 1.536 6.144 3.072 9.728 4.608 3.072 1.536 6.144 3.072 9.728 4.608 3.072 1.536 4.608 0 4.608-4.608 0-3.072-1.536-4.608-3.072-8.192-3.072-1.024-9.728-1.024-12.8-1.024z" fill="#F3D5BC" p-id="3746"></path><path d="M493.568 777.728c-1.536 1.536-1.536 3.072-1.536 4.608-3.072 6.144-4.608 14.336-8.192 18.944 0 0-1.536 1.536 0 1.536l1.536 1.536c3.072 0 6.144 0 9.728-1.536 3.072 0 4.608-1.536 4.608-4.608-3.072-4.608-3.072-11.264-4.608-17.408 0-1.536-1.536-1.536-1.536-3.072z" fill="" p-id="3747"></path><path d="M266.752 371.2c4.608 0 8.192-1.536 11.264-1.536 1.536 0 1.536-1.536 1.536-3.072s0-3.072-1.536-4.608c0-1.536-1.536-3.072-3.072-1.536-3.072 0-6.144 1.536-9.728 1.536-1.536 0-1.536 1.536-1.536 3.072s0 3.072 1.536 4.608c0 1.536 1.536 1.536 1.536 1.536zM571.392 331.264h9.728c3.072 0 3.072-1.536 3.072-6.144 0-3.072-1.536-3.072-4.608-3.072-3.072 0-6.144 0-9.728 1.536-1.536 0-1.536 0-1.536 1.536v6.144h3.072zM504.32 517.632c-1.536 1.536-4.608 1.536-6.144 3.072-9.728 3.072-18.944 6.144-28.672 8.192-4.608 0-9.728 1.536-15.872 3.072-4.608 1.536-9.728 0-15.872-3.072-1.536 0-1.536-1.536-1.536-3.072 1.536 0 1.536-1.536 3.072-1.536 9.728-1.536 20.992-4.608 31.744-6.144 9.728-1.536 20.992-1.536 31.744-1.536 0-0.512 0-0.512 1.536 1.024 0-1.536 0 0 0 0zM493.568 777.728l1.536 1.536c1.536 6.144 3.072 11.264 3.072 18.944 0 3.072 0 4.608-4.608 4.608-3.072 0-6.144 1.536-9.728 1.536 0 0-1.536 0-1.536-1.536v-1.536c3.072-6.144 4.608-14.336 8.192-18.944 1.024 0.512 1.024-1.536 3.072-4.608z" fill="#FFFFFF" p-id="3748"></path><path d="M397.824 445.952c0 6.144 3.072 11.264 8.192 15.872 1.536 1.536 4.608 1.536 6.144 0 1.536-1.536 1.536-3.072 0-4.608-3.072-4.608-3.072-9.728-1.536-17.408 0-1.536 0-3.072-1.536-3.072-3.072-1.536-6.144 0-8.192 3.072 0 0 0 1.536-3.072 6.144z" fill="#F5D5BA" p-id="3749"></path><path d="M882.688 624.64c-44.544-9.728-107.008-17.408-174.08-22.528-11.264-9.728-39.936-18.944-70.144-27.136-9.728-14.336-18.944-24.064-25.6-25.6 3.072-25.6 4.608-57.344 6.144-60.416 3.072-4.608 9.728-4.608 14.336-17.408 0 0 0-9.728-1.536-24.064 14.336-46.08 43.008-94.208 4.608-137.216 6.144-33.28 11.264-70.144-4.608-78.336-27.136-103.936-84.48-141.824-153.088-159.744h3.072c-3.072 0-4.608 0-8.192-1.536-15.872-3.072-28.672-4.608-44.544-6.144-22.528-1.536-43.008 0-65.536 6.144-14.336 3.072-27.136 8.192-41.472 15.872-14.336 6.144-27.136 15.872-41.472 22.528-11.264 4.608-24.064 11.264-38.4 15.872-4.608 1.536-11.264 3.072-17.408 6.144-4.608 1.536-8.192 4.608-4.608 11.264 1.536 3.072 1.536 4.608 3.072 8.192 1.536 6.144 0 14.336-3.072 20.992-3.072 6.144-8.192 15.872-14.336 20.992-8.192 9.728-17.408 18.944-27.136 25.6-4.608 3.072-8.192 8.192-9.728 15.872 0 1.536-1.536 3.072-1.536 3.072 18.944 28.672 33.28 43.008 18.944 100.352-3.072 3.072-3.072 8.192 0 17.408 3.072 4.608 9.728 11.264 20.992 20.992-4.608 39.936 11.264 71.68 46.08 107.008 3.072 11.264 0 22.528 4.608 31.744 3.072 6.144 11.264 14.336 27.136 20.992 8.192 22.528 20.992 44.544 33.28 65.536-4.608 14.336-14.336 41.472-15.872 58.88-11.264 4.608-24.064 9.728-35.328 20.992l-11.264 11.264c-36.864 15.872-79.872 31.744-119.808 57.344 3.072 6.144 4.608 11.264 9.728 14.336 1.536 1.536 1.536 1.536 3.072 1.536 11.264-6.144 24.064-11.264 36.864-18.944 4.608-3.072 11.264-6.144 18.944-6.144 6.144 0 14.336 1.536 20.992 3.072 8.192 1.536 9.728 3.072 8.192 14.336 0 1.536 0 3.072-1.536 4.608-4.608 15.872-8.192 30.208-14.336 47.616-1.536 8.192-4.608 18.944-6.144 27.136-1.536 3.072 0 6.144 3.072 8.192 9.728 8.192 20.992 15.872 30.208 24.064 9.728-67.072 20.992-122.88 31.744-157.696 1.536-3.072 4.608-6.144 9.728-8.192-8.192 55.808-17.408 116.224-9.728 178.688 1.536 3.072 4.608 4.608 9.728 4.608 76.8-33.28 180.224-58.88 303.104-76.8 6.144-1.536 14.336-1.536 20.992-3.072h1.536v-1.536l28.672-3.072c0 1.536 0 1.536 6.144 0 4.608 0 11.264-1.536 18.944-1.536l27.136-3.072c8.192-1.536 15.872-1.536 24.064-3.072l1.536-1.536c11.264-1.536 24.064-1.536 24.064-4.608-3.072-4.608-14.336-3.072-27.136-4.608-1.536-36.864-31.744-134.144-41.472-172.032 4.608-1.536 14.336 0 20.992 6.144l97.28 240.64c6.144-6.144 15.872-11.264 22.528-18.944 0-1.536 0-1.536-1.536-1.536-6.144-17.408-15.872-33.28-22.528-51.2-8.192-17.408-15.872-33.28-24.064-51.2-6.144-17.408-15.872-33.28-22.528-51.2-8.192-18.944-17.408-35.328-24.064-54.272-1.536-3.072 0-4.608 3.072-4.608h4.608c20.992 1.536 43.008 3.072 62.464 4.608 24.064 1.536 49.664 3.072 73.216 6.144 9.728 1.536 22.528 3.072 31.744 8.192 11.264 4.608 24.064 9.728 33.28 18.944l1.536-1.536c1.536-4.608 3.072-8.192 3.072-14.336-14.336-11.776-31.744-19.968-50.688-23.04z" fill="" p-id="3750"></path><path d="M265.216 415.744c-1.536 1.536-3.072 0-4.608-1.536-3.072-6.144-8.192-11.264-11.264-18.944-1.536-3.072-3.072-6.144-4.608-11.264 1.536-1.536 1.536-3.072 3.072-3.072 1.536-1.536 3.072-1.536 4.608-3.072 3.072-1.536 4.608 0 4.608 3.072 1.536 6.144 3.072 14.336 4.608 22.528 0 3.072 1.536 4.608 3.072 8.192 2.048 2.56 2.048 4.096 0.512 4.096zM281.088 369.664c-3.072 0-8.192 1.536-11.264 1.536l-1.536-1.536c0-1.536-1.536-3.072-1.536-4.608s1.536-1.536 1.536-3.072c3.072-1.536 6.144-1.536 9.728-1.536 1.536 0 3.072 0 3.072 1.536s1.536 3.072 1.536 4.608c0-0.512-1.536 3.072-1.536 3.072zM278.016 243.2c-3.072 6.144-6.144 11.264-11.264 17.408-4.608 4.608-6.144 9.728-8.192 17.408-3.072 17.408-4.608 35.328-4.608 54.272 0 6.144 1.536 14.336 1.536 20.992 0 4.608 0 8.192-4.608 9.728-1.536 0-1.536 1.536-3.072 1.536-3.072 1.536-4.608 0-6.144-3.072-4.608-14.336-6.144-27.136-8.192-41.472 0-6.144 0-14.336-1.536-20.992V281.6c0-9.728-3.072-18.944-9.728-27.136-1.536-3.072-3.072-4.608-4.608-8.192-1.536-3.072 0-8.192 3.072-8.192 8.192 0 17.408-3.072 25.6-8.192 9.728-6.144 20.992-15.872 30.208-24.064s20.992-15.872 31.744-18.944c4.608-1.536 8.192-1.536 14.336-3.072 1.536 0 3.072 0 3.072 1.536s-1.536 1.536-1.536 3.072c-3.072 1.536-6.144 3.072-9.728 6.144-9.728 6.144-17.408 17.408-24.064 27.136-6.144 7.168-9.216 13.824-12.288 21.504zM584.192 324.608c0 4.608 0 6.144-3.072 6.144h-9.728s-3.072 0-3.072-1.536v-6.144l1.536-1.536c3.072 0 6.144 0 9.728-1.536 3.072 1.536 4.608 1.536 4.608 4.608z" fill="#FFFFFF" p-id="3751"></path><path d="M544.256 337.408c-3.072-1.536-6.144-3.072-9.728-4.608l-1.536-1.536 1.536-1.536c3.072 0 6.144 0 8.192-1.536 4.608 0 8.192 0 14.336 3.072 1.536 1.536 3.072 4.608 3.072 8.192 0 3.072-1.536 6.144-4.608 4.608-4.608 0-8.192-5.12-11.264-6.656zM550.912 356.864c-1.536 0-3.072 1.536-4.608 1.536-6.144 0-11.264-3.072-17.408-6.144-6.144-4.608-14.336-4.608-22.528-3.072-3.072 0-4.608 1.536-8.192 3.072h-3.072v-3.072c6.144-8.192 17.408-14.336 27.136-8.192 6.144 3.072 11.264 8.192 18.944 11.264 4.608 1.024 6.144 1.024 9.728 4.608 0-1.536 0 0 0 0z" fill="#F4D5B9" p-id="3752"></path><path d="M462.848 498.688c-15.872 1.536-30.208 4.608-46.08 8.192-6.144 1.536-11.264 3.072-18.944 4.608h-3.072c-3.072-1.536-6.144-1.536-8.192-3.072-1.536-1.536-1.536-3.072 0-4.608 8.192-3.072 15.872-9.728 20.992-18.944 4.608-9.728 17.408-9.728 24.064-6.144 9.728 3.072 20.992 4.608 31.744 3.072 4.608 0 8.192-3.072 11.264-8.192 1.536-3.072 4.608-4.608 8.192-6.144 4.608-3.072 9.728-6.144 15.872-9.728 6.144-4.608 8.192-4.608 15.872 0 4.608 4.608 9.728 9.728 15.872 17.408 4.608 4.608 9.728 8.192 17.408 9.728 1.536 0 3.072 1.536 4.608 3.072 0 0 0 3.072-1.536 3.072-1.536 1.536-4.608 3.072-6.144 3.072-9.728 1.536-18.944 1.536-28.672 1.536-20.992 1.536-36.864 1.536-53.248 3.072zM504.32 517.632c-1.536 1.536-4.608 3.072-6.144 3.072-9.728 3.072-18.944 6.144-28.672 8.192-4.608 0-9.728 1.536-15.872 3.072-4.608 1.536-9.728 0-15.872-3.072-1.536 0-1.536-1.536-1.536-3.072 1.536 0 1.536-1.536 3.072-1.536 9.728-1.536 20.992-4.608 31.744-6.144 9.728-1.536 20.992-1.536 31.744-1.536 0-0.512 0-0.512 1.536 1.024 0-1.536 0 0 0 0z" fill="#FFFFFF" p-id="3753"></path><path d="M408.576 607.232c-11.264 1.536-20.992-3.072-30.208-8.192-15.872-9.728-25.6-22.528-33.28-39.936-3.072-6.144-6.144-14.336-9.728-22.528-1.536-3.072-1.536-6.144-1.536-11.264 0-6.144 1.536-15.872 8.192-20.992 1.536-1.536 4.608-3.072 8.192-3.072 3.072 0 4.608 1.536 6.144 4.608 1.536 4.608 3.072 11.264 3.072 17.408 3.072 15.872 8.192 30.208 17.408 44.544 1.536 3.072 4.608 6.144 6.144 8.192 3.072 3.072 4.608 1.536 6.144-1.536 1.536-3.072 1.536-6.144 3.072-8.192 0-1.536 1.536-1.536 3.072-3.072l3.072 3.072c3.072 8.192 6.144 17.408 11.264 25.6 1.536 1.536 1.536 3.072 3.072 6.144 2.56 6.144 1.024 9.216-4.096 9.216zM413.696 454.144c1.536 1.536 1.536 3.072 0 4.608s-4.608 1.536-6.144 0c-5.12-3.072-8.192-8.192-8.192-15.872 1.536-3.072 1.536-4.608 3.072-8.192s4.608-3.072 8.192-3.072c1.536 0 1.536 1.536 1.536 3.072-1.536 8.192-1.536 14.336 1.536 19.456zM370.688 363.008c0 1.536-3.072 1.536-6.144 1.536-9.728 0-17.408 3.072-25.6 8.192-4.608 1.536-8.192 4.608-14.336 6.144-1.536 1.536-4.608 1.536-6.144 1.536s-3.072-1.536-1.536-3.072l1.536-1.536c8.192-6.144 17.408-11.264 25.6-18.944 6.144-3.072 14.336-4.608 20.992-1.536 2.048 3.072 5.632 4.608 5.632 7.68zM292.352 375.808c0-4.608 4.608-11.264 9.728-14.336 4.608-1.536 9.728-1.536 14.336-3.072 1.536 0 3.072 0 4.608 1.536 0 1.536-1.536 3.072-1.536 3.072-4.608 4.608-11.264 9.728-18.944 15.872 0 1.536-1.536 1.536-1.536 1.536-5.12 0-6.656-1.536-6.656-4.608z" fill="#F4D5B9" p-id="3754"></path><path d="M308.224 447.488v-1.536-1.536h1.536c3.072 1.536 6.144 3.072 9.728 4.608 3.072 1.536 4.608 0 6.144-3.072 1.536-4.608 1.536-6.144-1.536-8.192-6.144-3.072-11.264-4.608-17.408-9.728-3.072-3.072-6.144-8.192-9.728-11.264-1.536-1.536-1.536-4.608 1.536-6.144l1.536-1.536c3.072-3.072 6.144-3.072 9.728 0 1.536 1.536 3.072 1.536 4.608 3.072 3.072 1.536 6.144 0 9.728-3.072 6.144-9.728 15.872-17.408 28.672-15.872h9.728c8.192 0 15.872-1.536 22.528-4.608h3.072v3.072c-6.144 6.144-3.072 8.192 3.072 14.336 1.536 1.536 3.072 1.536 4.608 0l4.608-4.608c0 4.608 0 9.728-1.536 15.872-3.072 8.192-8.192 15.872-15.872 20.992-6.144 6.144-9.728 14.336-11.264 24.064 0 1.536-1.536 3.072-3.072 4.608-8.192 3.072-15.872 9.728-22.528 15.872s-15.872 6.144-24.064 0c-1.024-17.408-9.216-25.6-13.824-35.328z" fill="#FFF1E4" p-id="3755"></path><path d="M471.04 753.664c-4.608 11.264-8.192 24.064-14.336 35.328-1.536 4.608-4.608 9.728-6.144 15.872-3.072 4.608-6.144 6.144-14.336 8.192-11.264 1.536-24.064 3.072-35.328 6.144-6.144 1.536-14.336 1.536-20.992 3.072-15.872 3.072-30.208 4.608-46.08 8.192-8.192 1.536-14.336 0-15.872-8.192 0-1.536-1.536-4.608-1.536-6.144-1.536-6.144-1.536-11.264-3.072-18.944-3.072-24.064-3.072-47.616-3.072-70.144 0-6.144 1.536-15.872 3.072-22.528 0-3.072 6.144-6.144 9.728-6.144 1.536 0 3.072 1.536 3.072 3.072 6.144 14.336 14.336 27.136 22.528 39.936 11.264 22.528 28.672 41.472 47.616 55.808 1.536 1.536 3.072 3.072 6.144 3.072 3.072 1.536 3.072 0 3.072-3.072 0-1.536-1.536-4.608-3.072-6.144-8.192-11.264-18.944-24.064-27.136-35.328-8.192-9.728-14.336-24.064-18.944-35.328-3.072-9.728-8.192-20.992-11.264-31.744-3.072-11.264-4.608-24.064-3.072-35.328 0-4.608 1.536-8.192 1.536-14.336 1.536-3.072 3.072-4.608 6.144-1.536 9.728 9.728 20.992 17.408 31.744 24.064 11.264 6.144 25.6 14.336 39.936 18.944h1.536l3.072 3.072c-1.536 0-1.536 1.536-3.072 1.536-4.608 1.536-9.728 1.536-15.872 3.072-3.072 0-4.608 1.536-8.192 3.072-3.072 1.536-6.144 4.608-4.608 8.192 1.536 9.728 3.072 20.992 3.072 30.208 0 6.144 4.608 9.728 11.264 9.728 6.144 0 11.264-1.536 18.944-1.536 3.072 0 8.192-1.536 11.264-1.536s4.608 0 3.072 3.072c-3.072 6.144-8.192 15.872-11.264 22.528-1.536 3.072-3.072 8.192-3.072 14.336v4.608c4.608-1.536 6.144-1.536 6.144-3.072 3.072-4.608 6.144-11.264 9.728-17.408 6.144-9.728 15.872-20.992 27.136-28.672 1.536-1.536 3.072-1.536 4.608-3.072 1.536 0 3.072-1.536 3.072 0 0 0 1.536 1.536 1.536 3.072-7.168 9.728-7.168 15.872-8.704 22.016z" fill="#FFFFFF" p-id="3756"></path><path d="M493.568 804.864c-3.072 0-6.144 1.536-9.728 1.536 0 0-1.536 0-1.536-1.536v-1.536c3.072-6.144 4.608-14.336 8.192-18.944 0-1.536 1.536-3.072 1.536-4.608l1.536 1.536c1.536 6.144 3.072 11.264 3.072 18.944 1.536 3.072 1.536 4.608-3.072 4.608z" fill="" p-id="3757"></path><path d="M499.712 688.64c0 1.536 0 3.072-3.072 3.072-4.608 0-6.144-1.536-9.728-4.608-8.192-6.144-17.408-11.264-25.6-20.992-8.192-9.728-17.408-17.408-20.992-28.672-1.536-8.192-1.536-17.408 0-25.6 1.536-11.264 1.536-25.6-1.536-36.864v-1.536h1.536c3.072 1.536 4.608 4.608 6.144 6.144 1.536 1.536 3.072 3.072 4.608 6.144 0-1.536 1.536-3.072 1.536-3.072 0-4.608-1.536-11.264-1.536-17.408 0-3.072-3.072-4.608-8.192-4.608-1.536 0-4.608 0-6.144-1.536-3.072-1.536-3.072-3.072-1.536-6.144 6.144-4.608 15.872-8.192 24.064-8.192 11.264 0 24.064 0 33.28-3.072 8.192-3.072 17.408-6.144 25.6-9.728 8.192-3.072 18.944 1.536 20.992 9.728 1.536 4.608 1.536 11.264 3.072 17.408 0 1.536 1.536 1.536 1.536 3.072 1.536 1.536 3.072 1.536 4.608 0 3.072-3.072 4.608-8.192 4.608-14.336v-11.264c0-4.608 1.536-8.192 4.608-11.264 4.608-6.144 8.192-14.336 6.144-22.528 0-8.192-1.536-17.408-3.072-24.064 0-4.608-4.608-9.728-9.728-9.728-11.264-3.072-18.944-9.728-27.136-18.944-6.144-6.144-11.264-14.336-22.528-17.408-1.536-1.024-6.144-2.56-9.728-2.56-3.072 0-4.608 1.536-3.072 4.608 0 1.536 1.536 3.072 1.536 4.608 1.536 4.608 1.536 8.192-3.072 11.264-6.144 4.608-15.872 11.264-24.064 14.336-8.192 1.536-17.408 1.536-24.064-1.536-8.192-3.072-15.872-8.192-20.992-15.872-1.536-3.072-3.072-6.144-3.072-11.264 1.536-6.144 1.536-11.264 3.072-18.944v-22.528c0-8.192-1.536-15.872 1.536-22.528 1.536-3.072 3.072-4.608 6.144-6.144s6.144-1.536 9.728-3.072c4.608-1.536 9.728 3.072 14.336 8.192 1.536 4.608 4.608 9.728 8.192 14.336 4.608 6.144 6.144 4.608 14.336 0 3.072-3.072 3.072-4.608 0-8.192-1.536-1.536-3.072-3.072-1.536-4.608 1.536-1.536 3.072 0 4.608 0 14.336 4.608 27.136 6.144 43.008 1.536 4.608-1.536 9.728-3.072 14.336-4.608 3.072-1.536 4.608 0 8.192 1.536l1.536 1.536c1.536 1.536 4.608 1.536 8.192 1.536h6.144c4.608 0 4.608 1.536 4.608 4.608 0 8.192-4.608 15.872-9.728 20.992-3.072 3.072-3.072 4.608-1.536 9.728 1.536 1.536 3.072 1.536 4.608 1.536 9.728-4.608 17.408-15.872 18.944-25.6 3.072-11.264 3.072-24.064 4.608-35.328 0-4.608 1.536-8.192 6.144-11.264 3.072-1.536 6.144-4.608 9.728-6.144 3.072-1.536 6.144-1.536 6.144 3.072 1.536 8.192 3.072 17.408 4.608 25.6 0 3.072 1.536 4.608 1.536 8.192 0 1.536 1.536 1.536 3.072 1.536 4.608-3.072 8.192-9.728 4.608-15.872 0-1.536-1.536-3.072-3.072-4.608-1.536-3.072-3.072-6.144-1.536-8.192 1.536-3.072 4.608-4.608 8.192-6.144 3.072 0 6.144 1.536 8.192 4.608 1.536 3.072 3.072 8.192 3.072 11.264v25.6c0 4.608-1.536 9.728-3.072 15.872-1.536 8.192-4.608 18.944-8.192 27.136-3.072 9.728-4.608 20.992-8.192 30.208 0 1.536 0 4.608-3.072 4.608s-3.072-3.072-4.608-3.072c0 0 0-1.536-1.536-3.072-1.536 3.072-1.536 4.608-3.072 6.144-1.536 3.072-3.072 6.144-4.608 9.728 3.072 3.072 1.536 6.144 3.072 9.728 1.536 20.992 3.072 43.008 0 62.464-3.072 24.064-14.336 44.544-28.672 60.416-9.728 9.728-20.992 20.992-31.744 28.672-6.144 4.608-9.728 4.608-17.408 0-1.536-1.536-3.072-1.536-3.072-1.536 0 1.536-1.536 3.072 0 4.608 1.536 4.608 3.072 11.264 1.536 17.408-1.536 6.144-4.608 9.728-6.144 14.336-5.632 7.68-10.24 17.408-10.24 27.136z" fill="#FFF1E4" p-id="3758"></path><path d="M678.4 706.048c1.536 11.264 3.072 24.064 6.144 33.28 1.536 8.192 1.536 17.408 3.072 25.6 0 3.072 1.536 6.144 1.536 9.728 0 4.608-1.536 6.144-6.144 6.144-6.144 1.536-15.872 1.536-22.528 3.072-18.944 1.536-36.864 3.072-55.808 4.608-14.336 1.536-25.6 3.072-39.936 4.608-8.192 1.536-17.408 1.536-25.6 3.072-3.072 0-4.608 0-4.608-3.072-3.072-18.944-8.192-35.328-17.408-51.2-1.536-4.608-4.608-8.192-8.192-14.336v-3.072h3.072c9.728 4.608 20.992 8.192 28.672 15.872 11.264 6.144 22.528 15.872 33.28 24.064H578.56v-3.072c-1.536-3.072-3.072-4.608-4.608-8.192-8.192-8.192-18.944-17.408-27.136-27.136-1.536-1.536-1.536-3.072-4.608-4.608 3.072 0 4.608-1.536 6.144-1.536h17.408c8.192 0 11.264-4.608 11.264-14.336-1.536-9.728-1.536-18.944-3.072-28.672 0-6.144-3.072-9.728-9.728-9.728-9.728 0-20.992 1.536-30.208 4.608h-3.072v-1.024c3.072-1.536 4.608-4.608 8.192-6.144 17.408-11.264 31.744-27.136 44.544-44.544 8.192-9.728 15.872-22.528 20.992-35.328 1.536-1.536 1.536-4.608 3.072-6.144 1.536-3.072 3.072-3.072 4.608-1.536 3.072 3.072 6.144 6.144 6.144 11.264 1.536 8.192 3.072 17.408 4.608 25.6 3.072 18.944 1.536 36.864-1.536 54.272-1.536 15.872-4.608 30.208-8.192 46.08-1.536 8.192-4.608 17.408-6.144 25.6v1.536c0 1.536 0 1.536 1.536 1.536s1.536 0 3.072-1.536c1.536-3.072 3.072-4.608 4.608-8.192 4.608-11.264 8.192-24.064 11.264-35.328 3.072-14.336 6.144-28.672 9.728-44.544 1.536-9.728 3.072-18.944 3.072-28.672 0-6.144 1.536-14.336 1.536-20.992 0-3.072 1.536-3.072 3.072-1.536 3.072 1.536 6.144 4.608 8.192 8.192 1.536 4.608 3.072 11.264 4.608 18.944 3.072 14.336 6.144 27.136 8.192 43.008 9.216 11.264 10.752 20.992 12.288 33.792z" fill="#FFFFFF" p-id="3759"></path><path d="M673.792 608.768c4.608-1.536 14.336 0 20.992 6.144l97.28 240.64c-15.872 11.264-30.208 24.064-47.616 33.28l-25.6-100.352c11.264-1.536 24.064-1.536 24.064-4.608-3.072-4.608-14.336-3.072-27.136-4.608-2.048-36.352-32.768-133.632-41.984-170.496zM668.672 797.184l27.136-3.584 24.064 107.008-1.536 4.608-25.6 12.8zM614.4 803.328l28.672-3.072c9.728 46.08 18.944 91.136 24.064 127.488v1.536l-28.672 8.192c-8.192-48.128-15.872-94.208-24.064-134.144zM164.864 237.056c18.944 28.672 33.28 43.008 18.944 100.352-3.072 3.072-3.072 8.192 0 17.408 3.072 4.608 9.728 11.264 20.992 20.992-4.608 39.936 11.264 71.68 46.08 107.008 3.072 11.264 0 22.528 4.608 31.744 3.072 6.144 11.264 14.336 27.136 20.992 8.192 22.528 20.992 44.544 33.28 65.536-4.608 14.336-14.336 41.472-15.872 58.88-11.264 4.608-24.064 9.728-35.328 20.992l-11.264 11.264c-39.936 15.872-79.872 31.744-119.808 57.344-61.44-94.72-123.904-325.632 31.232-512.512zM592.384 807.936l17.408 137.216c-98.816 27.136-251.904 11.264-361.984-76.8 9.728-67.072 20.992-122.88 31.744-159.744 1.536-3.072 4.608-6.144 9.728-8.192-8.192 55.808-17.408 116.224-9.728 178.688 1.536 3.072 4.608 4.608 9.728 4.608 77.824-34.304 181.76-59.392 303.104-75.776zM483.328 72.704c67.072 18.944 125.952 55.808 153.088 159.744 17.408 8.192 11.264 43.008 4.608 78.336 36.864 44.544 8.192 92.672-4.608 137.216 1.536 15.872 1.536 24.064 1.536 24.064-3.072 11.264-8.192 11.264-14.336 17.408-1.536 3.072-3.072 35.328-6.144 60.416 6.144 1.536 17.408 11.264 25.6 25.6 31.744 8.192 58.88 17.408 70.144 27.136 68.608 4.608 129.024 11.264 174.08 22.528 18.944 3.072 35.328 11.264 49.664 22.528 93.696-333.824-164.864-592.384-453.632-574.976z m260.608 468.992c-8.192 0-15.872 0-24.064-1.536-6.144 0-11.264-4.608-17.408-11.264-4.608-6.144-9.728-15.872-15.872-22.528h-1.536c-1.536 8.192-3.072 15.872-6.144 22.528 0 3.072 0 4.608 3.072 4.608 1.536 0 1.536 1.536 1.536 3.072s-1.536 3.072-3.072 3.072H642.56c0-3.072 0-4.608 3.072-6.144 4.608-1.536 6.144-6.144 8.192-11.264 3.072-9.728 4.608-18.944 8.192-28.672 1.536-6.144 3.072-14.336 4.608-20.992 1.536-4.608 0-6.144-3.072-8.192l-1.536-1.536c0-1.536 1.536-1.536 1.536-3.072H701.44c0 3.072 0 4.608-3.072 6.144-1.536 0-3.072 3.072-4.608 4.608-3.072 8.192-4.608 17.408-6.144 27.136 6.144-4.608 11.264-8.192 17.408-14.336 4.608-3.072 9.728-6.144 14.336-9.728 4.608-3.072 4.608-4.608 0-8.192 0-4.608 0-4.608 4.608-4.608h38.4c0 3.072 0 4.608-3.072 6.144-3.072 1.536-6.144 3.072-9.728 6.144-9.728 8.192-20.992 17.408-31.744 25.6 6.144 9.728 14.336 22.528 22.528 31.744 1.536 3.072 6.144 4.608 9.728 6.144-1.536 5.12-1.536 5.12-6.144 5.12z m92.16-60.416c-1.536-1.536-3.072-3.072-4.608-3.072h-24.064s-1.536 0-1.536 1.536c-3.072 4.608-4.608 8.192-4.608 12.8h28.672c-1.536 6.144-3.072 14.336-4.608 20.992-8.192-4.608-17.408-3.072-25.6-3.072 0 0-1.536 1.536-3.072 1.536-1.536 4.608-3.072 11.264-4.608 17.408-1.536 3.072 0 4.608 3.072 6.144 1.536 1.536 1.536 1.536 1.536 3.072s-1.536 3.072-3.072 3.072h-33.28c0-3.072 1.536-6.144 1.536-8.192 4.608-17.408 8.192-31.744 14.336-49.664 1.536-3.072 1.536-6.144 1.536-9.728 0-3.072 0-4.608-1.536-6.144-3.072-1.536-3.072-3.072-1.536-6.144h73.216c-1.536 4.608-3.072 11.264-3.072 17.408v2.048c0 1.536-1.536 1.536-1.536 3.072-5.12-1.536-7.168-1.536-7.168-3.072z m88.064 1.536c0 1.536-3.072 3.072-4.608 1.536-8.192-8.192-20.992-8.192-30.208-4.608-6.144 1.536-11.264 4.608-17.408 9.728-9.728 11.264-6.144 30.208 8.192 36.864 9.728 4.608 22.528 3.072 31.744 1.536 1.536 0 3.072 0 3.072-1.536h1.536c-1.536 4.608-1.536 9.728-3.072 15.872v1.536c-9.728 1.536-18.944 1.536-28.672 3.072-8.192 0-17.408-1.536-25.6-4.608-15.872-6.144-24.064-20.992-20.992-36.864 1.536-11.264 9.728-22.528 20.992-28.672 17.408-11.264 35.328-15.872 54.272-11.264 4.608 0 9.728 1.536 15.872 1.536-2.048 4.608-3.584 9.216-5.12 15.872z" fill="#A00D15" p-id="3760"></path><path d="M938.496 473.088c3.072 0 4.608-1.536 4.608-4.608 0-3.072-1.536-4.608-4.608-4.608-3.072 0-4.608 1.536-4.608 4.608-2.048 0-0.512 4.608 4.608 4.608z" fill="" p-id="3761"></path><path d="M938.496 473.088c-1.536 0-4.608-1.536-4.608-4.608 0-3.072 1.536-4.608 4.608-4.608 3.072 0 4.608 1.536 4.608 4.608 0 0-1.536 4.608-4.608 4.608z m1.536-4.608c0-4.608 0-4.608-4.608-4.608v4.608c1.536-1.536 1.536-1.536 1.536-3.072l3.072 3.072z" fill="" p-id="3762"></path><path d="M940.032 468.48l-1.536-1.536s-1.536 1.536-1.536 3.072v-4.608c3.072-2.048 3.072-2.048 3.072 3.072z" fill="#FFFFFF" p-id="3763"></path><path d="M407.04 195.584c-15.872-3.072-28.672-6.144-44.544-4.608-33.28 3.072-51.2 22.528-60.416 54.272-4.608 15.872-6.144 30.208-8.192 46.08 0 6.144 0 15.872-1.536 20.992-3.072 4.608-8.192 6.144-9.728 14.336-3.072 18.944 8.192 15.872 20.992 14.336 18.944-3.072 36.864-4.608 55.808-4.608 15.872-1.536 30.208 1.536 43.008 9.728 4.608 3.072 11.264 8.192 18.944 4.608 6.144-3.072 15.872-4.608 22.528-3.072 9.728 1.536 22.528-15.872 31.744-18.944 15.872-4.608 30.208-6.144 46.08-8.192 17.408-1.536 33.28-4.608 51.2-3.072 6.144 0 17.408 1.536 24.064 0 3.072-1.536 0-11.264 0-15.872-3.072-14.336-14.336-22.528-20.992-33.28-4.608-11.264-9.728-35.328-8.192-47.616-8.192-28.672-103.936-81.408-145.408-36.864 5.632-5.632-7.168 10.24-15.36 11.776z" fill="#FFF1E4" p-id="3764"></path><path d="M601.6 203.776c-25.6-79.872-101.888-122.88-183.296-124.416-20.992 1.536-39.936 4.608-58.88 9.728-15.872 3.072-46.08 11.264-52.736 27.136 3.072 1.536 18.944-1.536 18.944 3.072 0 6.144-18.944 11.264-24.064 15.872-9.728 6.144-18.944 15.872-27.136 24.064s-1.536 8.192 6.144 6.144c24.064-8.192 47.616-15.872 71.68-14.336 25.6 1.536 46.08 11.264 68.608 24.064 43.008-44.544 135.68 9.728 145.408 36.864 8.192 4.608 14.336 20.992 18.944 28.672 8.192 11.264 14.336 30.208 24.064 41.472 13.312-16.384-1.024-59.392-7.68-78.336-4.608-12.8 8.192 22.016 0 0z" fill="#FFFFFF" p-id="3765"></path></svg>